<?xml version="1.0" standalone="no"?>
<!DOCTYPE svg PUBLIC "-//W3C//DTD SVG 20010904//EN"
 "http://www.w3.org/TR/2001/REC-SVG-20010904/DTD/svg10.dtd">
<svg version="1.0" xmlns="http://www.w3.org/2000/svg"
 width="199.000000pt" height="199.000000pt" viewBox="0 0 199.000000 199.000000"
 preserveAspectRatio="xMidYMid meet">
<metadata>
Created by potrace 1.14, written by Peter Selinger 2001-2017
</metadata>
<g transform="translate(0.000000,199.000000) scale(0.100000,-0.100000)"
fill="#000000" stroke="none">
<path d="M112 1343 c-13 -2 -41 -22 -62 -43 -105 -105 -34 -289 113 -291 107
-2 176 78 165 193 -8 83 -65 139 -145 144 -26 1 -58 0 -71 -3z m98 -79 c76
-45 44 -184 -42 -184 -38 0 -48 6 -71 40 -34 49 -14 130 37 150 31 13 45 12
76 -6z"/>
<path d="M1163 1342 c-44 -6 -53 -36 -53 -172 0 -69 4 -130 8 -137 13 -20 54
-30 112 -27 42 2 59 8 73 25 24 30 10 40 -57 40 l-56 0 0 37 c0 36 1 37 39 38
45 0 71 17 71 46 0 16 -6 19 -32 18 -74 -4 -78 -2 -78 34 0 33 0 33 48 34 36
1 51 7 65 23 10 12 16 26 14 32 -3 9 -108 15 -154 9z"/>
<path d="M339 1317 c-8 -18 -4 -51 21 -153 18 -71 38 -135 45 -143 8 -7 29
-15 48 -16 l35 -3 28 104 c15 57 28 103 30 102 1 -2 12 -41 24 -88 13 -47 28
-91 35 -99 16 -17 72 -22 83 -7 5 6 24 74 41 151 18 77 35 148 37 158 4 14 -1
17 -29 17 -19 0 -39 -6 -44 -12 -6 -7 -18 -55 -28 -106 -11 -51 -22 -87 -26
-80 -3 7 -16 55 -29 106 -22 92 -22 92 -54 92 -17 0 -36 -4 -43 -8 -7 -4 -23
-50 -37 -101 -14 -52 -27 -95 -29 -98 -4 -4 -21 73 -33 152 -8 51 -10 55 -40
55 -16 0 -28 -8 -35 -23z"/>
<path d="M784 1196 c2 -154 9 -177 57 -189 21 -6 21 -8 21 121 0 39 2 72 4 72
2 0 26 -35 54 -78 60 -94 77 -111 119 -117 l31 -4 0 170 c0 160 -1 169 -19
169 -37 0 -60 -45 -58 -111 2 -33 0 -64 -3 -70 -4 -5 -27 23 -52 63 -64 100
-82 118 -122 118 l-33 0 1 -144z"/>
<path d="M1372 1333 c-29 -11 -39 -58 -37 -171 1 -101 4 -115 23 -134 42 -42
188 -22 238 33 41 46 46 158 9 215 -24 36 -94 64 -161 63 -32 0 -65 -3 -72 -6z
m145 -81 c46 -35 46 -125 1 -157 -27 -18 -84 -20 -95 -2 -4 6 -8 49 -9 95 l-1
82 41 0 c23 0 51 -8 63 -18z"/>
<path d="M1060 993 c-83 -12 -117 -77 -78 -151 7 -14 34 -30 70 -44 65 -23 87
-48 63 -71 -18 -19 -52 -11 -66 14 -7 14 -21 19 -48 19 -42 0 -44 -5 -22 -51
16 -33 42 -48 95 -55 64 -9 112 17 128 68 17 58 -1 85 -85 126 -57 27 -68 36
-65 55 4 29 39 34 63 7 22 -25 85 -28 85 -5 0 50 -75 96 -140 88z"/>
<path d="M53 980 c-36 -14 -43 -43 -43 -165 0 -110 1 -117 25 -140 43 -44 55
-34 55 45 l0 70 60 0 c41 0 60 -4 61 -12 0 -7 2 -31 4 -52 2 -27 10 -46 25
-58 44 -36 50 -26 51 80 1 125 -2 236 -5 240 -2 1 -15 -3 -29 -9 -24 -11 -50
-54 -46 -75 8 -43 0 -50 -61 -49 l-60 0 0 68 c0 70 -1 71 -37 57z"/>
<path d="M407 975 c-140 -73 -107 -297 47 -320 82 -13 146 20 178 92 52 119
-22 243 -146 243 -28 0 -63 -7 -79 -15z m124 -68 c71 -55 41 -177 -44 -180
-61 -2 -91 38 -88 116 2 59 86 100 132 64z"/>
<path d="M691 966 c-21 -23 -23 -31 -19 -135 3 -109 3 -111 35 -142 42 -43
120 -51 171 -19 50 31 62 71 62 205 0 127 -7 139 -54 92 -22 -22 -24 -33 -24
-117 0 -96 -6 -111 -48 -124 -13 -4 -30 0 -44 12 -21 17 -23 27 -24 133 -1
126 -11 142 -55 95z"/>
<path d="M1280 983 c-41 -16 -47 -39 -46 -167 1 -107 4 -127 20 -145 11 -12
27 -21 38 -21 17 0 18 11 18 170 0 94 -3 170 -7 169 -5 0 -15 -3 -23 -6z"/>
<path d="M1356 983 c-3 -4 -6 -69 -6 -145 0 -134 1 -140 25 -163 45 -46 54
-35 57 72 l3 97 60 -92 c58 -87 75 -102 122 -102 21 0 21 2 20 168 -2 161 -3
167 -22 164 -39 -7 -50 -29 -55 -115 l-5 -82 -59 92 c-32 51 -66 95 -76 98
-34 11 -58 14 -64 8z"/>
<path d="M1739 967 c-49 -32 -79 -96 -73 -159 2 -28 12 -65 22 -82 21 -37 93
-76 139 -76 37 0 96 22 117 43 22 21 46 74 46 99 0 41 -14 49 -81 52 -74 3
-99 -2 -99 -18 1 -27 20 -39 63 -40 40 -1 44 -3 37 -21 -17 -46 -93 -59 -136
-22 -23 20 -28 32 -28 76 -1 46 3 56 27 77 36 31 78 31 116 -2 50 -42 100 -9
65 43 -35 55 -154 71 -215 30z"/>
</g>
</svg>
