<?xml version="1.0" encoding="UTF-8"?>
<svg id="Layer_2" data-name="Layer 2" xmlns="http://www.w3.org/2000/svg" viewBox="0 0 310.74 51.63">
  <defs>
    <style>
      .cls-1 {
        fill: #fff;
      }
    </style>
  </defs>
  <g id="Layer_1-2" data-name="Layer 1">
    <g>
      <path class="cls-1" d="M0,12.96C0,4.61,3.67,.22,10.66,.22s10.8,4.39,10.8,12.74v25.63c0,8.35-3.67,12.75-10.8,12.75S0,46.95,0,38.6V12.96Zm1.58,25.71c0,7.42,3.1,11.23,9.07,11.23s9.22-3.82,9.22-11.23V12.89c0-7.42-3.17-11.23-9.22-11.23S1.58,5.47,1.58,12.89v25.78Z"/>
      <path class="cls-1" d="M35.54,50.98h-2.3L24.16,.58h1.58l8.78,48.24L43.24,.86h1.94l8.21,47.67L61.89,.58h1.44l-8.93,50.4h-2.09L44.18,4.32l-8.64,46.66Z"/>
      <path class="cls-1" d="M68.53,50.98h-1.51V.58h2.23l17.71,47.16V.58h1.51V50.98h-1.94L68.53,2.88V50.98Z"/>
      <path class="cls-1" d="M108.85,24.7v1.44h-14.83v23.33h17.64v1.51h-19.23V.58h19.23v1.51h-17.64V24.7h14.83Z"/>
      <path class="cls-1" d="M125.81,.58c7.7,0,10.94,5.4,10.94,12.6v25.27c0,7.13-3.24,12.53-10.87,12.53h-10.58V.58h10.51Zm0,48.89c6.77,0,9.36-4.68,9.36-10.94V13.1c0-6.34-2.66-11.02-9.36-11.02h-8.93V49.47h8.93Z"/>
      <path class="cls-1" d="M148.43,50.98h-7.92V.58h7.92V22.18h9V.58h8.07V50.98h-8.07V29.38h-9v21.6Z"/>
      <path class="cls-1" d="M168.53,12.67c0-8.06,4.25-12.67,12.02-12.67s12.03,4.61,12.03,12.67v26.21c0,8.06-4.25,12.67-12.03,12.67s-12.02-4.61-12.02-12.67V12.67Zm7.92,26.71c0,3.6,1.58,4.97,4.1,4.97s4.1-1.37,4.1-4.97V12.17c0-3.6-1.58-4.97-4.1-4.97s-4.1,1.37-4.1,4.97v27.22Z"/>
      <path class="cls-1" d="M203.3,.58V39.46c0,3.6,1.58,4.9,4.1,4.9s4.1-1.3,4.1-4.9V.58h7.49V38.96c0,8.06-4.03,12.67-11.81,12.67s-11.81-4.61-11.81-12.67V.58h7.92Z"/>
      <path class="cls-1" d="M233.35,0c7.71,0,11.67,4.61,11.67,12.67v1.58h-7.49v-2.09c0-3.6-1.44-4.97-3.96-4.97s-3.96,1.37-3.96,4.97c0,10.37,15.48,12.31,15.48,26.71,0,8.06-4.03,12.67-11.81,12.67s-11.81-4.61-11.81-12.67v-3.1h7.49v3.6c0,3.6,1.58,4.9,4.1,4.9s4.1-1.3,4.1-4.9c0-10.37-15.48-12.31-15.48-26.71,0-8.06,3.96-12.67,11.67-12.67Z"/>
      <path class="cls-1" d="M247.72,.58h7.92V50.98h-7.92V.58Z"/>
      <path class="cls-1" d="M266.11,14.47V50.98h-7.13V.58h9.94l8.14,30.17V.58h7.06V50.98h-8.14l-9.87-36.51Z"/>
      <path class="cls-1" d="M299.65,22.9h11.09v15.99c0,8.06-4.03,12.67-11.81,12.67s-11.81-4.61-11.81-12.67V12.67c0-8.06,4.03-12.67,11.81-12.67s11.81,4.61,11.81,12.67v4.9h-7.49v-5.4c0-3.6-1.58-4.97-4.1-4.97s-4.1,1.37-4.1,4.97v27.22c0,3.6,1.58,4.9,4.1,4.9s4.1-1.3,4.1-4.9v-9.29h-3.6v-7.2Z"/>
    </g>
  </g>
</svg>