<svg width="150" height="53" viewBox="0 0 150 53" fill="none" xmlns="http://www.w3.org/2000/svg">
<path d="M25.0069 12.9436C25.0069 15.4081 24.451 17.6596 23.3624 19.6331C22.2691 21.6112 20.7542 23.1724 18.8548 24.2704C16.9647 25.3637 14.8244 25.9196 12.5035 25.9196C10.1825 25.9196 8.04225 25.3637 6.15213 24.2704C4.25739 23.1724 2.74252 21.6159 1.64458 19.6331C0.551283 17.6596 0 15.4081 0 12.9436C0 10.479 0.551283 8.23219 1.64458 6.26795C2.73789 4.30371 4.25276 2.74715 6.1475 1.64922C8.04225 0.555916 10.1825 0 12.5035 0C14.8244 0 16.9601 0.555916 18.8548 1.64922C20.7496 2.74715 22.2691 4.29908 23.3577 6.26795C24.451 8.23219 25.0023 10.4744 25.0023 12.9436H25.0069ZM19.1235 12.9436C19.1235 11.4194 18.8363 10.076 18.2757 8.94561C17.7198 7.82915 16.9415 6.96285 15.9594 6.3745C14.9727 5.78152 13.8099 5.4804 12.5035 5.4804C11.1971 5.4804 10.0296 5.78152 9.04753 6.3745C8.06541 6.96748 7.28713 7.83378 6.73121 8.94561C6.16603 10.076 5.88344 11.4241 5.88344 12.9436C5.88344 14.4631 6.17067 15.8112 6.73121 16.9415C7.28713 18.058 8.06541 18.9243 9.04753 19.5126C10.0296 20.1056 11.1924 20.4067 12.5081 20.4067C13.8238 20.4067 14.9819 20.1056 15.964 19.5126C16.9415 18.9243 17.7198 18.058 18.2804 16.9415C18.8455 15.8112 19.1281 14.4631 19.1281 12.9436H19.1235Z" fill="white"/>
<path d="M58.2553 0.61614L52.0569 25.9196H47.9848C46.4004 25.9196 45.0153 24.8494 44.6215 23.3114L41.1285 9.77022L36.936 25.9149H32.9287C31.3259 25.9149 29.9361 24.8263 29.5562 23.2697L25.0533 4.91522C24.7985 3.87288 25.0301 2.78884 25.6926 1.94571C26.355 1.10257 27.3511 0.61614 28.4258 0.61614H30.3067L33.6792 17.7013L37.3853 3.22894C37.7791 1.69091 39.1643 0.61614 40.7486 0.61614H44.1582L48.5639 17.7106L51.3851 3.41888C51.7048 1.79746 53.1409 0.61614 54.7948 0.61614H58.2507H58.2553Z" fill="white"/>
<path d="M80.7607 25.9196H78.0274C76.2207 25.9196 74.5529 25.0208 73.5569 23.5106L65.0236 10.5531V25.9196H64.5279C61.5769 25.9196 59.1772 23.5199 59.1772 20.5689V0.61614H61.9012C63.7172 0.61614 65.3896 1.52414 66.381 3.04364L74.9143 16.1123V5.97146C74.9143 3.02048 77.314 0.620773 80.265 0.620773H80.7607V25.9196Z" fill="white"/>
<path d="M89.66 5.45261V10.7616H98.2674V11.2573C98.2674 13.5829 96.3773 15.473 94.0517 15.473H89.66V21.0229H99.3005V21.69C99.3005 24.0156 97.4104 25.9057 95.0848 25.9057H88.0246C85.6991 25.9057 83.8089 24.0156 83.8089 21.69V4.82257C83.8089 2.49699 85.6991 0.606874 88.0246 0.606874H99.3005V1.24155C99.3005 3.56713 97.4104 5.45724 95.0848 5.45724H89.66V5.45261Z" fill="white"/>
<path d="M123.14 13.2447C123.14 15.7278 122.612 17.9514 121.565 19.8555C120.513 21.7687 118.966 23.279 116.974 24.3398C114.996 25.3961 112.615 25.9288 109.905 25.9288H106.314C103.252 25.9288 100.764 23.4365 100.764 20.3789V6.17993C100.764 3.11776 103.257 0.630037 106.314 0.630037H109.905C112.615 0.630037 114.991 1.15352 116.969 2.18197C118.966 3.22431 120.513 4.71602 121.565 6.6154C122.612 8.50551 123.14 10.7384 123.14 13.2447ZM117.224 13.2447C117.224 10.8959 116.552 9.05679 115.223 7.78282C113.889 6.50421 111.961 5.85565 109.488 5.85565H106.611V17.7198C106.611 19.3088 107.903 20.5967 109.488 20.5967C111.961 20.5967 113.889 19.9481 115.223 18.6695C116.548 17.3955 117.224 15.5703 117.224 13.2447Z" fill="white"/>
<path d="M22.005 27.9718V52.7796H21.5093C18.5213 52.7796 16.1216 50.3799 16.1216 47.4289V42.2079H6.71732V52.7796H6.22163C3.27064 52.7796 0.870941 50.3799 0.870941 47.4289V32.8268C0.870941 29.8758 3.27064 27.4761 6.22163 27.4761H6.71732V37.3251H16.1216V32.8268C16.1216 29.8758 18.5213 27.4761 21.4723 27.4761H21.9679L22.005 27.9718Z" fill="white"/>
<path d="M48.9623 39.8128C48.9623 42.2774 48.411 44.5289 47.3177 46.5024C46.2244 48.4805 44.7095 50.0417 42.8102 51.1396C40.92 52.2329 38.7798 52.7888 36.4588 52.7888C34.1379 52.7888 31.9976 52.2329 30.1075 51.1396C28.2127 50.0417 26.6979 48.4805 25.5999 46.5024C24.5066 44.5289 23.9553 42.2774 23.9553 39.8128C23.9553 37.3483 24.5066 35.1014 25.5999 33.1372C26.6932 31.173 28.2081 29.6164 30.1075 28.5185C32.0022 27.4252 34.1379 26.8693 36.4588 26.8693C38.7798 26.8693 40.9154 27.4252 42.8102 28.5185C44.7049 29.6164 46.2244 31.1683 47.3177 33.1372C48.411 35.1014 48.9623 37.3436 48.9623 39.8128ZM43.0788 39.8128C43.0788 38.2887 42.7916 36.9452 42.2311 35.8149C41.6752 34.6984 40.8969 33.8321 39.9148 33.2438C38.928 32.6508 37.7652 32.3497 36.4588 32.3497C35.1524 32.3497 33.985 32.6508 33.0029 33.2438C32.0207 33.8367 31.2425 34.703 30.6866 35.8149C30.1214 36.9452 29.8388 38.2933 29.8388 39.8128C29.8388 41.3323 30.126 42.6804 30.6866 43.8108C31.2425 44.9273 32.0207 45.7936 33.0029 46.3819C33.985 46.9749 35.1478 47.276 36.4588 47.276C37.7698 47.276 38.9326 46.9749 39.9148 46.3819C40.8922 45.7936 41.6752 44.9273 42.2311 43.8108C42.7963 42.6804 43.0788 41.3323 43.0788 39.8128Z" fill="white"/>
<path d="M70.87 27.2584V42.0087C70.87 44.3297 70.4253 46.3263 69.5543 47.9431C68.6695 49.5738 67.4326 50.8107 65.8667 51.6122C64.3241 52.4043 62.5498 52.8027 60.5948 52.8027C57.5558 52.8027 55.0866 51.8716 53.2521 50.0417C51.4176 48.2072 50.491 45.5063 50.491 42.0133V32.5767C50.491 29.6442 52.8769 27.2584 55.8093 27.2584H56.305V42.0087C56.305 43.783 56.6849 45.1126 57.44 45.9696C58.1858 46.8174 59.2514 47.2297 60.7014 47.2297C62.1514 47.2297 63.1798 46.8174 63.9257 45.9696C64.6762 45.1126 65.0607 43.783 65.0607 42.0087V32.572C65.0607 29.6396 67.4465 27.2538 70.3789 27.2538H70.8746L70.87 27.2584Z" fill="white"/>
<path d="M91.1331 45.3952C91.1331 46.7201 90.795 47.957 90.1325 49.0735C89.4654 50.1946 88.474 51.1026 87.1769 51.7743C85.8936 52.4414 84.3232 52.7796 82.5072 52.7796C80.6912 52.7796 79.1068 52.4692 77.6985 51.8623C76.267 51.2462 75.1042 50.3382 74.2426 49.1707C73.3763 47.9987 72.8759 46.6135 72.7509 45.057L72.7092 44.5196H77.2399C78.0784 44.5196 78.8242 45.0384 79.0976 45.8121C79.2736 46.3078 79.5562 46.7479 79.9453 47.1231C80.5337 47.6883 81.3027 47.9663 82.3033 47.9663C83.1835 47.9663 83.8321 47.7485 84.2768 47.3038C84.7216 46.8591 84.9393 46.2893 84.9393 45.5712C84.9393 44.9319 84.7679 44.4269 84.4112 44.0239C84.0267 43.5884 83.5264 43.2271 82.9287 42.963C82.2802 42.6758 81.3676 42.333 80.2187 41.9485C78.6853 41.4389 77.4113 40.9247 76.4292 40.4197C75.3961 39.8916 74.5113 39.1179 73.7886 38.1173C73.052 37.0935 72.6814 35.7593 72.6814 34.1425C72.6814 31.9049 73.5013 30.1121 75.1228 28.815C76.7071 27.541 78.8242 26.8971 81.4092 26.8971C83.9943 26.8971 86.2596 27.5595 87.8671 28.8659C89.4932 30.1862 90.429 31.9698 90.6467 34.161L90.7023 34.7077H86.7924C85.6574 34.7077 84.615 34.1008 84.0081 33.077C83.8645 32.8361 83.6885 32.6137 83.48 32.4192C82.9751 31.942 82.2848 31.7104 81.3768 31.7104C80.5985 31.7104 79.9917 31.9003 79.5284 32.2987C79.0883 32.6739 78.8752 33.2206 78.8752 33.9711C78.8752 34.5594 79.042 35.032 79.3848 35.4118C79.76 35.8288 80.2511 36.1762 80.8394 36.4449C81.4787 36.7368 82.3589 37.0657 83.4569 37.4224C85.0412 37.9829 86.3384 38.5111 87.3297 38.9975C88.3767 39.5163 89.2755 40.2946 90.012 41.3231C90.7579 42.37 91.1378 43.7413 91.1378 45.3998L91.1331 45.3952Z" fill="white"/>
<path d="M98.8928 27.4761V52.7796H98.3971C95.4461 52.7796 93.0464 50.3799 93.0464 47.4289V32.8268C93.0464 29.8758 95.4461 27.4761 98.3971 27.4761H98.8928Z" fill="white"/>
<path d="M123.483 52.7888H120.75C118.943 52.7888 117.275 51.8855 116.279 50.3799L107.746 37.4224V52.7888H107.25C104.299 52.7888 101.899 50.3891 101.899 47.4381V27.4854H104.623C106.439 27.4854 108.112 28.3934 109.103 29.9129L117.636 42.9816V32.8407C117.636 29.8897 120.036 27.49 122.987 27.49H123.483V52.7935V52.7888Z" fill="white"/>
<path d="M150 41.0683L149.991 43.4495C149.634 45.1172 148.925 46.6784 147.892 48.0821C146.854 49.495 145.474 50.6393 143.792 51.4871C142.111 52.3348 140.165 52.761 138.006 52.761C135.542 52.761 133.332 52.2098 131.442 51.1304C129.542 50.0463 128.055 48.5083 127.017 46.558C125.984 44.6215 125.461 42.3839 125.461 39.9009C125.461 37.4178 125.984 35.1802 127.017 33.2438C128.055 31.2981 129.538 29.7554 131.423 28.6575C133.304 27.5642 135.509 27.0082 137.974 27.0082C141.031 27.0082 143.607 27.7773 145.641 29.2921C146.488 29.9268 147.22 30.6634 147.818 31.4834C148.462 32.3682 148.555 33.5264 148.054 34.5038C147.554 35.4813 146.563 36.0928 145.465 36.0928H145.34C144.432 36.0928 143.561 35.6296 143.019 34.8559C142.611 34.2768 142.083 33.7812 141.448 33.3827C140.489 32.7805 139.331 32.4794 138.011 32.4794C136.69 32.4794 135.542 32.7805 134.546 33.3735C133.554 33.9618 132.771 34.8235 132.22 35.9261C131.659 37.0425 131.377 38.3814 131.377 39.9055C131.377 42.3098 132.021 44.1999 133.285 45.5202C134.546 46.8359 136.311 47.503 138.525 47.503C140.142 47.503 141.55 47.0212 142.704 46.0669C143.723 45.2284 144.432 44.0749 144.821 42.6434H139.623C138.02 42.6434 136.718 41.3416 136.718 39.7387V38.1729H147.1C148.703 38.1729 150.005 39.4747 150 41.0729V41.0683Z" fill="white"/>
</svg>
